# xmcd
#
# Track frame offsets:
# 150
# 11331
# 29835
# 63955
# 80606
# 102166
# 123985
# 151566
# 171426
# 189687
# 214100
# 229713
# 262210
# 284928
# 304193
#
# Disc length: 4431 seconds
#
#
# Revision: 0
# Processed by: cddbd v1.5.1PL0 Copyright (c) Steve Scherf et al.
# Submitted via: FreeRIP 2.90 
#
DISCID=d7114d0f
DTITLE=The Jefferson Street Bluesmen - Blues Train Comin' (Live At Bourbon Street)
DYEAR=2004
DGENRE=Blues
TTITLE0=Hold It
TTITLE1=Sweet Home Chicago
TTITLE2=Don't Throw You're Love On Me So Strong
TTITLE3=Big Boss Man
TTITLE4=Polk Salad Annie
TTITLE5=Members Only
TTITLE6=Green Onions
TTITLE7=What Does It Take
TTITLE8=Woke Up This Mornin'
TTITLE9=I'll Play The Blues For You
TTITLE10=Man Down There (One Way Out)
TTITLE11=Slip Away
TTITLE12=Baby What You Want Me To Do
TTITLE13=Honky Tonk
TTITLE14=Blues Train Comin'
EXTD=Bluesfestradio.com
EXTT0=
EXTT1=
EXTT2=
EXTT3=
EXTT4=
EXTT5=
EXTT6=
EXTT7=
EXTT8=
EXTT9=
EXTT10=
EXTT11=
EXTT12=
EXTT13=
EXTT14=
PLAYORDER=
